<svg width="44" height="40" viewBox="0 0 44 40" fill="none" xmlns="http://www.w3.org/2000/svg">
<g clip-path="url(#clip0_1_167)">
<path d="M43.5181 29.2C43.4651 29.0956 43.4157 29.009 43.3698 28.9396C42.6108 27.6897 41.1602 26.1555 39.0191 24.3366L38.9738 24.295L38.9512 24.2746L38.9283 24.2536H38.9053C37.9335 23.4067 37.3182 22.8372 37.0605 22.5456C36.5889 21.9902 36.4833 21.428 36.741 20.8584C36.9231 20.428 37.607 19.5191 38.7911 18.1305C39.414 17.3945 39.9073 16.8047 40.2716 16.3603C42.899 13.1668 44.038 11.1261 43.6886 10.2374L43.5529 10.0297C43.4617 9.90467 43.2263 9.7903 42.8471 9.68598C42.467 9.58189 41.9812 9.56468 41.3888 9.63405L34.8287 9.67548C34.7224 9.64105 34.5707 9.64426 34.373 9.68598C34.1755 9.72771 34.0767 9.74864 34.0767 9.74864L33.9625 9.8008L33.8719 9.86346C33.796 9.90489 33.7124 9.97776 33.6212 10.0819C33.5305 10.1857 33.4546 10.3075 33.394 10.4464C32.6798 12.1264 31.8677 13.6883 30.9564 15.1322C30.3945 15.9932 29.8784 16.7393 29.4071 17.3711C28.9365 18.0027 28.5416 18.468 28.223 18.7663C27.9039 19.0648 27.6158 19.304 27.3572 19.4847C27.0989 19.6655 26.9018 19.7418 26.7653 19.7139C26.6284 19.6859 26.4996 19.6582 26.3776 19.6305C26.1651 19.5055 25.9942 19.3354 25.8654 19.1203C25.736 18.9051 25.6488 18.6342 25.6033 18.3079C25.558 17.9814 25.5312 17.7006 25.5235 17.4645C25.5164 17.2286 25.5197 16.8951 25.5351 16.4647C25.5509 16.0341 25.558 15.7428 25.558 15.59C25.558 15.0623 25.5692 14.4896 25.5918 13.8718C25.6148 13.2539 25.6334 12.7644 25.6489 12.4038C25.6644 12.0428 25.6716 11.6608 25.6716 11.2582C25.6716 10.8555 25.6448 10.5397 25.5918 10.3105C25.5395 10.0816 25.4591 9.85945 25.3533 9.64404C25.2467 9.42885 25.0908 9.26239 24.8863 9.14422C24.6813 9.0262 24.4265 8.93253 24.1232 8.86294C23.3183 8.69641 22.2933 8.60632 21.0478 8.59232C18.2234 8.5646 16.4085 8.73135 15.6037 9.09236C15.2848 9.24488 14.9962 9.45329 14.7382 9.71691C14.4648 10.0225 14.4266 10.1892 14.624 10.2167C15.5353 10.3415 16.1804 10.64 16.5601 11.1121L16.697 11.3622C16.8034 11.5427 16.9097 11.8622 17.016 12.3202C17.1222 12.7783 17.1907 13.2851 17.2209 13.8402C17.2967 14.8539 17.2967 15.7217 17.2209 16.4435C17.1449 17.1657 17.0731 17.7279 17.0045 18.1305C16.936 18.5332 16.8336 18.8595 16.697 19.1093C16.5601 19.3592 16.4691 19.512 16.4235 19.5674C16.3779 19.6229 16.3399 19.6578 16.3098 19.6715C16.1124 19.7407 15.9071 19.7759 15.6946 19.7759C15.4819 19.7759 15.2238 19.6786 14.9202 19.4841C14.6166 19.2896 14.3015 19.0225 13.975 18.6823C13.6484 18.342 13.2801 17.8665 12.87 17.2556C12.4601 16.6448 12.0349 15.9229 11.5945 15.0898L11.2301 14.4857C11.0023 14.097 10.6912 13.5311 10.2963 12.7885C9.90123 12.0455 9.55202 11.3269 9.24844 10.6327C9.12709 10.3411 8.94479 10.1191 8.70184 9.96639L8.58783 9.90372C8.51204 9.84829 8.39037 9.78942 8.22346 9.72669C8.05631 9.66403 7.88191 9.61909 7.69952 9.59145L1.45813 9.63288C0.820335 9.63288 0.387589 9.76498 0.159727 10.0288L0.0685342 10.1536C0.0229777 10.2232 0 10.3342 0 10.487C0 10.6397 0.0455565 10.8272 0.136749 11.0492C1.04788 13.007 2.03871 14.8952 3.10925 16.714C4.17979 18.5328 5.11006 19.9979 5.89952 21.108C6.68914 22.2189 7.494 23.2673 8.3141 24.2528C9.13419 25.2387 9.67704 25.8704 9.94264 26.148C10.2086 26.4261 10.4174 26.634 10.5693 26.7728L11.1388 27.2725C11.5033 27.6058 12.0385 28.005 12.7446 28.47C13.451 28.9353 14.2329 29.3934 15.0909 29.845C15.9491 30.2959 16.9474 30.6638 18.0865 30.9484C19.2254 31.2332 20.3339 31.3475 21.4122 31.2924H24.0318C24.5631 31.2504 24.9656 31.0977 25.2392 30.8341L25.3298 30.7297C25.3907 30.6468 25.4478 30.5181 25.5005 30.3448C25.5537 30.1713 25.5802 29.9801 25.5802 29.7721C25.5647 29.1752 25.6144 28.6373 25.728 28.1583C25.8415 27.6795 25.9709 27.3185 26.1157 27.0754C26.2603 26.8324 26.4235 26.6275 26.6052 26.4613C26.7873 26.2948 26.917 26.1939 26.9931 26.1592C27.0688 26.1242 27.1292 26.1005 27.1747 26.0863C27.5392 25.9753 27.9681 26.0828 28.4621 26.4094C28.9557 26.7356 29.4187 27.1385 29.8518 27.6173C30.2846 28.0966 30.8046 28.6343 31.4119 29.2312C32.0197 29.8283 32.551 30.2722 33.0064 30.5642L33.4618 30.8141C33.766 30.9808 34.1608 31.1336 34.6469 31.2724C35.132 31.4111 35.5571 31.4459 35.9221 31.3765L41.7533 31.2933C42.33 31.2933 42.7788 31.206 43.0971 31.0328C43.4161 30.8592 43.6056 30.668 43.6667 30.4601C43.7277 30.2519 43.7309 30.0157 43.6783 29.7516C43.6243 29.4882 43.571 29.304 43.5181 29.2Z" fill="white"/>
</g>
<defs>
<clipPath id="clip0_1_167">
<rect width="43.75" height="40" fill="white"/>
</clipPath>
</defs>
</svg>
